<?xml version="1.0" encoding="UTF-8"?>
<svg id="Layer_1" xmlns="http://www.w3.org/2000/svg" xmlns:xlink="http://www.w3.org/1999/xlink" version="1.1" viewBox="0 0 792 612">
  <!-- Generator: Adobe Illustrator 29.8.1, SVG Export Plug-In . SVG Version: 2.1.1 Build 2)  -->
  <defs>
    <style>
      .st0 {
        fill: none;
      }

      .st1 {
        fill: url(#linear-gradient2);
      }

      .st2 {
        fill: url(#linear-gradient1);
      }

      .st3 {
        fill: #231f20;
      }

      .st4 {
        fill: url(#linear-gradient);
      }

      .st5 {
        fill: #8dc63f;
      }

      .st6 {
        fill: #fff;
      }

      .st7 {
        fill: #808285;
      }

      .st8 {
        display: none;
      }

      .st9 {
        fill: #1c75bc;
      }

      .st10 {
        clip-path: url(#clippath);
      }
    </style>
    <linearGradient id="linear-gradient" x1="407.3" y1="461.05" x2="407.3" y2="300.9" gradientTransform="translate(0 614) scale(1 -1)" gradientUnits="userSpaceOnUse">
      <stop offset="0" stop-color="#bcbec0"/>
      <stop offset="1" stop-color="#231f20"/>
    </linearGradient>
    <clipPath id="clippath">
      <rect class="st0" x="932.22" y="310.48" width="30.56" height="30.56"/>
    </clipPath>
    <linearGradient id="linear-gradient1" x1="245.67" y1="514.35" x2="245.67" y2="444.34" gradientTransform="translate(0 614) scale(1 -1)" gradientUnits="userSpaceOnUse">
      <stop offset="0" stop-color="#8dc63f"/>
      <stop offset=".08" stop-color="#83c345"/>
      <stop offset=".2" stop-color="#69be56"/>
      <stop offset=".36" stop-color="#3fb572"/>
      <stop offset=".55" stop-color="#06a898"/>
      <stop offset=".57" stop-color="#00a79d"/>
      <stop offset="1" stop-color="#1c75bc"/>
    </linearGradient>
    <linearGradient id="linear-gradient2" x1="566.59" y1="514.35" x2="566.59" y2="444.34" gradientTransform="translate(0 614) scale(1 -1)" gradientUnits="userSpaceOnUse">
      <stop offset="0" stop-color="#bcbec0"/>
      <stop offset="1" stop-color="#231f20"/>
    </linearGradient>
  </defs>
  <g>
    <g>
      <path class="st3" d="M185.05,365.47v44.06h-6.91v-44.06h-16.15v-5.88h39.14v5.88h-16.08Z"/>
      <path class="st3" d="M246.28,409.52v-22.83h-27.02v22.83h-6.91v-49.94h6.91v21h27.02v-21h6.84v49.94h-6.84Z"/>
      <path class="st3" d="M300.5,409.52c-9.54-18-11.16-20.7-13.59-21.46h-8.44v21.46h-6.91v-49.94c4.78-.14,10.06-.37,15.28-.37,9.54,0,15.49,5.28,15.49,13.06s-5.51,11.96-8.74,13.36c2.93,1.53,4.55,3.96,15.12,23.86h-8.23l.02.02ZM283.82,364.87h-5.35v17.64h10.87c3.23-1.4,5.88-4.99,5.88-8.88,0-5.58-3.96-8.74-11.39-8.74v-.02Z"/>
      <path class="st3" d="M319.89,409.52v-49.94h6.91v49.94h-6.91Z"/>
      <path class="st3" d="M362.28,409.96h-6.02l-18-50.37h7.71l11.76,33.85c1.1,3.23,1.9,8.3,1.9,8.3,0,0,.73-5.06,1.9-8.3l11.67-33.85h6.98l-17.91,50.37h.02Z"/>
      <path class="st3" d="M391.15,409.52v-49.94h29.23v5.95h-22.33v15.35h18.44v6.02h-18.44v16.68h23.29v5.95h-30.19Z"/>
      <path class="st7" d="M484.64,409.52l-1.69-33.85c-.07-1.03.07-6.54.07-6.54,0,0-1.26,4.48-2.13,6.47l-15.71,33.85h-4.12l-15.78-33.63c-1.03-2.13-2.2-6.98-2.2-6.98,0,0,.23,6.11.07,7.21l-1.76,33.49h-6.84l3.75-49.94h6.75l16.08,33.72c1.33,2.79,2.42,7.21,2.42,7.21,0,0,1.1-4.32,2.42-7.11l15.78-33.79h6.75l3.16,49.94h-7.05l.02-.05Z"/>
      <path class="st7" d="M528.42,410.39c-13.59,0-23.65-10-23.65-25.48s10.8-26.21,25.62-26.21c13.59,0,23.58,10,23.58,25.48s-10.73,26.21-25.55,26.21ZM528.99,364.64c-9.77,0-17.04,7.87-17.04,18.94,0,13.52,7.94,20.86,17.84,20.86s16.97-7.87,16.97-18.94c0-13.52-7.87-20.86-17.77-20.86h0Z"/>
      <path class="st7" d="M597.46,409.52c-9.54-18-11.16-20.7-13.59-21.46h-8.44v21.46h-6.91v-49.94c4.78-.14,10.06-.37,15.28-.37,9.54,0,15.49,5.28,15.49,13.06s-5.51,11.96-8.74,13.36c2.93,1.53,4.55,3.96,15.12,23.86h-8.23l.02.02ZM580.78,364.87h-5.35v17.64h10.87c3.23-1.4,5.88-4.99,5.88-8.88,0-5.58-3.96-8.74-11.39-8.74v-.02Z"/>
      <path class="st7" d="M616.85,409.52v-49.94h29.23v5.95h-22.33v15.35h18.44v6.02h-18.44v16.68h23.29v5.95h-30.19Z"/>
    </g>
    <g>
      <path class="st3" d="M323.44,457.4l-2.77-7.48h-8.88l-2.63,7.48h-3.43l9.1-24.11h3.09l9.1,24.11h-3.61.02ZM316.76,439.42c-.32-.82-.59-2.7-.59-2.7,0,0-.27,1.85-.59,2.7l-2.84,7.78h6.98l-2.95-7.78Z"/>
      <path class="st3" d="M343.2,457.49c-2.2,0-4.96-.05-7.09-.11v-24.11c2.38-.07,5.56-.21,7.98-.21,7.46,0,13.13,4.21,13.13,11.41,0,8.51-5.86,13.02-14,13.02h-.02ZM343.14,435.83h-3.68v18.83h4.37c5.67,0,9.97-3.23,9.97-9.47s-4.19-9.36-10.64-9.36h-.02Z"/>
      <path class="st3" d="M375.66,457.61h-2.91l-8.69-24.32h3.73l5.67,16.36c.53,1.56.92,4,.92,4,0,0,.37-2.45.92-4l5.63-16.36h3.36l-8.65,24.32h.02Z"/>
      <path class="st3" d="M392.8,457.4v-24.11h3.34v24.11h-3.34Z"/>
      <path class="st3" d="M412.49,457.81c-2.31,0-4.53-.5-6.34-1.62l.59-3.04c1.88,1.17,4.12,1.85,6.27,1.85,2.88,0,4.85-1.69,4.85-3.82,0-2.33-1.6-3.68-4.46-4.71-4.62-1.67-6.57-3.59-6.57-6.95,0-3.93,3.68-6.63,8.17-6.63,2.1,0,4.3.59,5.79,1.3l-.46,2.91c-1.42-.71-3.75-1.42-5.74-1.42-2.52,0-4.32,1.37-4.32,3.34,0,2.4,1.67,3.36,4.62,4.44,4.39,1.62,6.43,3.82,6.43,7.16,0,4.05-3.73,7.23-8.78,7.23l-.05-.02Z"/>
      <path class="st3" d="M440.79,457.81c-6.57,0-11.41-4.83-11.41-12.31s5.22-12.67,12.38-12.67c6.57,0,11.39,4.83,11.39,12.31s-5.17,12.65-12.33,12.65l-.02.02ZM441.09,435.71c-4.71,0-8.23,3.8-8.23,9.15,0,6.52,3.82,10.06,8.62,10.06s8.19-3.8,8.19-9.15c0-6.52-3.8-10.06-8.58-10.06h0Z"/>
      <path class="st3" d="M477.32,457.4c-4.6-8.69-5.4-10-6.57-10.36h-4.07v10.36h-3.34v-24.11c2.31-.07,4.85-.18,7.37-.18,4.62,0,7.48,2.56,7.48,6.31s-2.65,5.79-4.21,6.45c1.42.75,2.2,1.92,7.3,11.53h-3.98.02ZM469.27,435.83h-2.58v8.51h5.24c1.56-.66,2.84-2.4,2.84-4.3,0-2.7-1.92-4.21-5.49-4.21h0Z"/>
      <path class="st3" d="M494.2,457.81c-2.31,0-4.53-.5-6.34-1.62l.59-3.04c1.88,1.17,4.12,1.85,6.27,1.85,2.88,0,4.85-1.69,4.85-3.82,0-2.33-1.6-3.68-4.46-4.71-4.62-1.67-6.57-3.59-6.57-6.95,0-3.93,3.68-6.63,8.17-6.63,2.1,0,4.3.59,5.79,1.3l-.46,2.91c-1.42-.71-3.75-1.42-5.74-1.42-2.52,0-4.32,1.37-4.32,3.34,0,2.4,1.67,3.36,4.62,4.44,4.39,1.62,6.43,3.82,6.43,7.16,0,4.05-3.73,7.23-8.78,7.23l-.05-.02Z"/>
    </g>
    <path class="st4" d="M413.04,153.35l16.08,20.82c.32.43.27,1.05-.14,1.4l-14.82,12.88c-.64.57-1.67.11-1.69-.73l-1.26-33.69c-.05-1.01,1.24-1.44,1.83-.66h0ZM429.88,181.94l-16.84,14.78c-.32.3-.53.71-.53,1.14v53.71c0,1.33,1.58,2.01,2.56,1.12l33.53-30.79c.46-.41.62-1.08.39-1.67-8.56-22.53-14.57-33.99-16.81-37.9-.48-.85-1.6-1.03-2.33-.39h.02ZM448.57,231.21l-35.52,31.73c-.32.27-.5.69-.5,1.12v47.49c0,1.08,1.1,1.81,2.08,1.37,48.31-21.09,39.21-69.7,36.37-80.93-.27-1.1-1.6-1.49-2.45-.75l.02-.02ZM402.34,153.67c-5.35,6.66-18.6,23.72-26.08,38.98-.27.55-.11,1.21.34,1.6l25.92,21.57c.87.71,2.17.11,2.17-1.01v-60.3c0-1.26-1.58-1.81-2.36-.82v-.02ZM404.14,226.41l-28.8-24.54c-.75-.64-1.94-.39-2.36.53-2.47,5.38-9.58,22.26-11.94,42.84-.05.48.14.98.5,1.3l40.63,35.71c.98.87,2.52.16,2.52-1.14v-53.55c0-.43-.18-.87-.53-1.14h-.02ZM404.37,292.7l-41.77-36.9c-.62-.55-1.6-.07-1.53.78.62,7.85,5.42,35.07,42.25,56.39.62.37,1.4-.09,1.4-.8v-18.78c0-.27-.11-.53-.32-.69h-.02Z"/>
  </g>
  <g>
    <path class="st6" d="M148.51,474.98v19.26h-3.02v-19.26h-7.06v-2.57h17.11v2.57h-7.03Z"/>
    <path class="st6" d="M175.29,494.25v-9.98h-11.81v9.98h-3.02v-21.83h3.02v9.18h11.81v-9.18h2.99v21.83h-2.99Z"/>
    <path class="st6" d="M198.99,494.25c-4.17-7.87-4.88-9.05-5.94-9.38h-3.69v9.38h-3.02v-21.83c2.09-.06,4.4-.16,6.68-.16,4.17,0,6.77,2.31,6.77,5.71s-2.41,5.23-3.82,5.84c1.28.67,1.99,1.73,6.61,10.43h-3.6.01ZM191.7,474.73h-2.34v7.71h4.75c1.41-.61,2.57-2.18,2.57-3.88,0-2.44-1.73-3.82-4.98-3.82h0Z"/>
    <path class="st6" d="M207.47,494.25v-21.83h3.02v21.83h-3.02Z"/>
    <path class="st6" d="M225.99,494.44h-2.63l-7.87-22.02h3.37l5.14,14.8c.48,1.41.83,3.63.83,3.63,0,0,.32-2.21.83-3.63l5.1-14.8h3.05l-7.83,22.02h0Z"/>
    <path class="st6" d="M238.61,494.25v-21.83h12.78v2.6h-9.76v6.71h8.06v2.63h-8.06v7.29h10.18v2.6h-13.2Z"/>
    <path class="st6" d="M279.48,494.25l-.74-14.8c-.03-.45.03-2.86.03-2.86,0,0-.55,1.96-.93,2.83l-6.87,14.8h-1.8l-6.9-14.7c-.45-.93-.96-3.05-.96-3.05,0,0,.1,2.67.03,3.15l-.77,14.64h-2.99l1.64-21.83h2.95l7.03,14.74c.58,1.22,1.06,3.15,1.06,3.15,0,0,.48-1.89,1.06-3.11l6.9-14.77h2.95l1.38,21.83h-3.08v-.02Z"/>
    <path class="st6" d="M298.62,494.63c-5.94,0-10.34-4.37-10.34-11.14s4.72-11.46,11.2-11.46c5.94,0,10.31,4.37,10.31,11.14s-4.69,11.46-11.17,11.46ZM298.88,474.63c-4.27,0-7.45,3.44-7.45,8.28,0,5.91,3.47,9.12,7.8,9.12s7.42-3.44,7.42-8.28c0-5.91-3.44-9.12-7.77-9.12Z"/>
    <path class="st6" d="M328.81,494.25c-4.17-7.87-4.88-9.05-5.94-9.38h-3.69v9.38h-3.02v-21.83c2.09-.06,4.4-.16,6.68-.16,4.17,0,6.77,2.31,6.77,5.71s-2.41,5.23-3.82,5.84c1.28.67,1.99,1.73,6.61,10.43h-3.6.01ZM321.52,474.73h-2.34v7.71h4.75c1.41-.61,2.57-2.18,2.57-3.88,0-2.44-1.73-3.82-4.98-3.82h0Z"/>
    <path class="st6" d="M337.28,494.25v-21.83h12.78v2.6h-9.76v6.71h8.06v2.63h-8.06v7.29h10.18v2.6h-13.2,0Z"/>
  </g>
  <g>
    <path class="st6" d="M209.01,515.17l-1.21-3.27h-3.88l-1.15,3.27h-1.5l3.98-10.54h1.35l3.98,10.54h-1.58.01ZM206.1,507.31c-.14-.36-.26-1.18-.26-1.18,0,0-.12.81-.26,1.18l-1.24,3.4h3.05l-1.29-3.4h0Z"/>
    <path class="st6" d="M217.66,515.22c-.96,0-2.17-.02-3.1-.05v-10.54c1.04-.03,2.43-.09,3.49-.09,3.26,0,5.74,1.84,5.74,4.99,0,3.72-2.56,5.69-6.12,5.69h-.01ZM217.63,505.75h-1.61v8.23h1.91c2.48,0,4.36-1.41,4.36-4.14s-1.83-4.09-4.65-4.09h-.01Z"/>
    <path class="st6" d="M231.84,515.27h-1.27l-3.8-10.63h1.63l2.48,7.15c.23.68.4,1.75.4,1.75,0,0,.16-1.07.4-1.75l2.46-7.15h1.47l-3.78,10.63h.01Z"/>
    <path class="st6" d="M239.33,515.17v-10.54h1.46v10.54h-1.46Z"/>
    <path class="st6" d="M247.95,515.36c-1.01,0-1.98-.22-2.77-.71l.26-1.33c.82.51,1.8.81,2.74.81,1.26,0,2.12-.74,2.12-1.67,0-1.02-.7-1.61-1.95-2.06-2.02-.73-2.87-1.57-2.87-3.04,0-1.72,1.61-2.9,3.57-2.9.92,0,1.88.26,2.53.57l-.2,1.27c-.62-.31-1.64-.62-2.51-.62-1.1,0-1.89.6-1.89,1.46,0,1.05.73,1.47,2.02,1.94,1.92.71,2.81,1.67,2.81,3.13,0,1.77-1.63,3.16-3.84,3.16h-.02Z"/>
    <path class="st6" d="M260.32,515.36c-2.87,0-4.99-2.11-4.99-5.38s2.28-5.54,5.41-5.54c2.87,0,4.98,2.11,4.98,5.38s-2.26,5.53-5.39,5.53h0ZM260.44,505.7c-2.06,0-3.6,1.66-3.6,4,0,2.85,1.67,4.4,3.77,4.4s3.58-1.66,3.58-4c0-2.85-1.66-4.4-3.75-4.4h0Z"/>
    <path class="st6" d="M276.28,515.17c-2.01-3.8-2.36-4.37-2.87-4.53h-1.78v4.53h-1.46v-10.54c1.01-.03,2.12-.08,3.22-.08,2.02,0,3.27,1.12,3.27,2.76s-1.16,2.53-1.84,2.82c.62.33.96.84,3.19,5.04h-1.74,0ZM272.77,505.75h-1.13v3.72h2.29c.68-.29,1.24-1.05,1.24-1.88,0-1.18-.84-1.84-2.4-1.84Z"/>
    <path class="st6" d="M283.66,515.36c-1.01,0-1.98-.22-2.77-.71l.26-1.33c.82.51,1.8.81,2.74.81,1.26,0,2.12-.74,2.12-1.67,0-1.02-.7-1.61-1.95-2.06-2.02-.73-2.87-1.57-2.87-3.04,0-1.72,1.61-2.9,3.57-2.9.92,0,1.88.26,2.53.57l-.2,1.27c-.62-.31-1.64-.62-2.51-.62-1.1,0-1.89.6-1.89,1.46,0,1.05.73,1.47,2.02,1.94,1.92.71,2.81,1.67,2.81,3.13,0,1.77-1.63,3.16-3.84,3.16h-.02Z"/>
  </g>
  <path class="st3" d="M903.2,327.32c-2.8,2.8-6.56,4.36-10.51,4.36s-7.72-1.56-10.51-4.36c-2.8-2.8-4.36-6.56-4.36-10.51s1.56-7.72,4.36-10.51c2.8-2.8,6.56-4.36,10.51-4.36s7.72,1.56,10.51,4.36c2.8,2.8,4.36,6.56,4.36,10.51s-1.56,7.71-4.36,10.51M892.69,294.4c-12.38,0-22.41,10.03-22.41,22.41s10.03,22.41,22.41,22.41,22.41-10.03,22.41-22.41-10.03-22.41-22.41-22.41M886.21,323.18c.28,1.29.67,2.59,1.2,3.8.25.57.53,1.12.86,1.65-1.68-.63-3.22-1.62-4.5-2.9-.76-.76-1.42-1.62-1.97-2.55h4.41M887.41,306.64c.25-.56.53-1.12.86-1.65-1.69.63-3.22,1.62-4.5,2.9-.76.76-1.42,1.62-1.97,2.55h4.41c.28-1.29.67-2.58,1.2-3.8M885.55,316.81c0-1.37.08-2.75.26-4.11h-5.06c-.46,1.32-.69,2.71-.69,4.11s.23,2.79.69,4.11h5.06c-.18-1.36-.26-2.74-.26-4.11M887.81,316.81c0,1.37.09,2.75.28,4.11h9.19c.19-1.36.28-2.74.28-4.11s-.09-2.75-.28-4.11h-9.19c-.19,1.36-.28,2.74-.28,4.11M895.9,307.54c-.52-1.18-1.69-3.35-3.21-3.35s-2.7,2.16-3.22,3.35c-.41.93-.71,1.91-.95,2.9h8.33c-.24-.99-.54-1.97-.95-2.9M897.11,304.99c.33.53.61,1.08.86,1.65.53,1.21.92,2.5,1.2,3.8h4.41c-.55-.93-1.21-1.79-1.97-2.55-1.28-1.28-2.81-2.27-4.5-2.9M889.47,326.07c.52,1.18,1.69,3.35,3.21,3.35s2.7-2.16,3.22-3.35c.41-.93.71-1.91.95-2.9h-8.33c.24.99.54,1.97.95,2.9M899.82,316.81c0,1.37-.08,2.75-.26,4.11h5.06c.46-1.32.69-2.71.69-4.11s-.23-2.79-.69-4.11h-5.06c.18,1.36.26,2.74.26,4.11M897.97,326.97c-.25.56-.53,1.12-.86,1.65,1.69-.63,3.22-1.62,4.5-2.9.76-.76,1.42-1.62,1.97-2.55h-4.41c-.28,1.29-.67,2.58-1.2,3.8"/>
  <g class="st10">
    <g>
      <path class="st6" d="M953.92,325.34c-.87,2.44-4.53,7.2-6.29,9.79-.06.09-.19.09-.25,0-1.77-2.59-5.43-7.35-6.29-9.79-.25-.7-.4-1.43-.4-2.2,0-3.76,3.05-6.81,6.81-6.81s6.81,3.05,6.81,6.81c0,.76-.15,1.49-.4,2.2M947.5,310.48c-8.44,0-15.28,6.84-15.28,15.28s6.84,15.28,15.28,15.28,15.28-6.84,15.28-15.28-6.84-15.28-15.28-15.28"/>
      <path class="st6" d="M947.5,319.33c-2.1,0-3.81,1.71-3.81,3.81s1.71,3.81,3.81,3.81,3.81-1.71,3.81-3.81-1.71-3.81-3.81-3.81"/>
    </g>
  </g>
  <g id="PLACES...OUTLINED" class="st8">
    <rect class="st3" x="87.67" y="353.73" width="313.73" height="196.73"/>
    <g>
      <path class="st9" d="M148.51,192.55v19.26h-3.02v-19.26h-7.06v-2.57h17.11v2.57h-7.03Z"/>
      <path class="st9" d="M175.29,211.81v-9.98h-11.81v9.98h-3.02v-21.83h3.02v9.18h11.81v-9.18h2.99v21.83h-2.99Z"/>
      <path class="st9" d="M198.99,211.81c-4.17-7.87-4.88-9.05-5.94-9.38h-3.69v9.38h-3.02v-21.83c2.09-.06,4.4-.16,6.68-.16,4.17,0,6.77,2.31,6.77,5.71s-2.41,5.23-3.82,5.84c1.28.67,1.99,1.73,6.61,10.43h-3.6.01ZM191.7,192.29h-2.34v7.71h4.75c1.41-.61,2.57-2.18,2.57-3.88,0-2.44-1.73-3.82-4.98-3.82h0Z"/>
      <path class="st9" d="M207.47,211.81v-21.83h3.02v21.83h-3.02Z"/>
      <path class="st9" d="M225.99,212h-2.63l-7.87-22.02h3.37l5.14,14.8c.48,1.41.83,3.63.83,3.63,0,0,.32-2.21.83-3.63l5.1-14.8h3.05l-7.83,22.02h0Z"/>
      <path class="st9" d="M238.61,211.81v-21.83h12.78v2.6h-9.76v6.71h8.06v2.63h-8.06v7.29h10.18v2.6h-13.2Z"/>
      <path class="st5" d="M279.48,211.81l-.74-14.8c-.03-.45.03-2.86.03-2.86,0,0-.55,1.96-.93,2.83l-6.87,14.8h-1.8l-6.9-14.7c-.45-.93-.96-3.05-.96-3.05,0,0,.1,2.67.03,3.15l-.77,14.64h-2.99l1.64-21.83h2.95l7.03,14.74c.58,1.22,1.06,3.15,1.06,3.15,0,0,.48-1.89,1.06-3.11l6.9-14.77h2.95l1.38,21.83h-3.08v-.02Z"/>
      <path class="st5" d="M298.62,212.19c-5.94,0-10.34-4.37-10.34-11.14s4.72-11.46,11.2-11.46c5.94,0,10.31,4.37,10.31,11.14s-4.69,11.46-11.17,11.46ZM298.88,192.19c-4.27,0-7.45,3.44-7.45,8.28,0,5.91,3.47,9.12,7.8,9.12s7.42-3.44,7.42-8.28c0-5.91-3.44-9.12-7.77-9.12Z"/>
      <path class="st5" d="M328.81,211.81c-4.17-7.87-4.88-9.05-5.94-9.38h-3.69v9.38h-3.02v-21.83c2.09-.06,4.4-.16,6.68-.16,4.17,0,6.77,2.31,6.77,5.71s-2.41,5.23-3.82,5.84c1.28.67,1.99,1.73,6.61,10.43h-3.6.01ZM321.52,192.29h-2.34v7.71h4.75c1.41-.61,2.57-2.18,2.57-3.88,0-2.44-1.73-3.82-4.98-3.82h0Z"/>
      <path class="st5" d="M337.28,211.81v-21.83h12.78v2.6h-9.76v6.71h8.06v2.63h-8.06v7.29h10.18v2.6h-13.2,0Z"/>
    </g>
    <g>
      <path class="st9" d="M217.24,228.68h-.99v4.06h-1.46v-10.54c1.07-.05,2.15-.08,2.95-.08,2.26,0,3.71,1.13,3.71,2.96,0,2.33-1.86,3.6-4.2,3.6h0ZM217.5,223.33h-1.26v4.17h1.13c1.38,0,2.56-.78,2.56-2.2,0-1.13-.87-1.97-2.43-1.97h0Z"/>
      <path class="st9" d="M225.55,232.74v-10.54h1.46v9.22h4.42v1.32h-5.88Z"/>
      <path class="st9" d="M241.64,232.74l-1.21-3.27h-3.88l-1.15,3.27h-1.5l3.98-10.54h1.35l3.98,10.54h-1.58.01ZM238.73,224.88c-.14-.36-.26-1.18-.26-1.18,0,0-.12.81-.26,1.18l-1.24,3.4h3.05l-1.29-3.4h0Z"/>
      <path class="st9" d="M254.96,232.04c-.71.48-1.84.91-3.35.91-2.84,0-5.22-1.86-5.22-5.3s2.53-5.64,5.71-5.64c1.1,0,2.06.23,2.85.57l-.17,1.3c-.81-.33-1.86-.6-2.93-.6-2.2,0-3.95,1.74-3.95,4.2,0,2.65,1.77,4.17,4.01,4.17,1.21,0,2.37-.43,3.13-.98l-.08,1.36h0Z"/>
      <path class="st9" d="M259.03,232.74v-10.54h6.17v1.26h-4.71v3.24h3.89v1.27h-3.89v3.52h4.91v1.26h-6.37Z"/>
      <path class="st9" d="M271.46,232.92c-1.01,0-1.98-.22-2.77-.71l.26-1.33c.82.51,1.8.81,2.74.81,1.26,0,2.12-.74,2.12-1.67,0-1.02-.7-1.61-1.95-2.06-2.02-.73-2.87-1.57-2.87-3.04,0-1.72,1.61-2.9,3.57-2.9.92,0,1.88.26,2.53.57l-.2,1.27c-.62-.31-1.64-.62-2.51-.62-1.1,0-1.89.6-1.89,1.46,0,1.05.73,1.47,2.02,1.94,1.92.71,2.81,1.67,2.81,3.13,0,1.77-1.63,3.16-3.84,3.16h-.02Z"/>
    </g>
    <path class="st2" d="M248.18,99.82l7.03,9.1c.14.19.12.46-.06.61l-6.48,5.63c-.28.25-.73.05-.74-.32l-.55-14.73c-.02-.44.54-.63.8-.29ZM255.55,112.32l-7.36,6.46c-.14.13-.23.31-.23.5v23.48c0,.58.69.88,1.12.49l14.66-13.46c.2-.18.27-.47.17-.73-3.74-9.85-6.37-14.86-7.35-16.57-.21-.37-.7-.45-1.02-.17h.01ZM263.71,133.86l-15.53,13.87c-.14.12-.22.3-.22.49v20.76c0,.47.48.79.91.6,21.12-9.22,17.14-30.47,15.9-35.38-.12-.48-.7-.65-1.07-.33h.01ZM243.5,99.96c-2.34,2.91-8.13,10.37-11.4,17.04-.12.24-.05.53.15.7l11.33,9.43c.38.31.95.05.95-.44v-26.36c0-.55-.69-.79-1.03-.36h0ZM244.3,131.76l-12.59-10.73c-.33-.28-.85-.17-1.03.23-1.08,2.35-4.19,9.73-5.22,18.73-.02.21.06.43.22.57l17.76,15.61c.43.38,1.1.07,1.1-.5v-23.41c0-.19-.08-.38-.23-.5h-.01ZM244.39,160.74l-18.26-16.13c-.27-.24-.7-.03-.67.34.27,3.43,2.37,15.33,18.47,24.65.27.16.61-.04.61-.35v-8.21c0-.12-.05-.23-.14-.3h-.01Z"/>
    <g>
      <path class="st3" d="M469.43,192.55v19.26h-3.02v-19.26h-7.06v-2.57h17.11v2.57h-7.03Z"/>
      <path class="st3" d="M496.2,211.81v-9.98h-11.81v9.98h-3.02v-21.83h3.02v9.18h11.81v-9.18h2.99v21.83h-2.99Z"/>
      <path class="st3" d="M519.9,211.81c-4.17-7.87-4.88-9.05-5.94-9.38h-3.69v9.38h-3.02v-21.83c2.09-.06,4.4-.16,6.68-.16,4.17,0,6.77,2.31,6.77,5.71s-2.41,5.23-3.82,5.84c1.28.67,1.99,1.73,6.61,10.43h-3.6,0ZM512.61,192.29h-2.34v7.71h4.75c1.41-.61,2.57-2.18,2.57-3.88,0-2.44-1.73-3.82-4.98-3.82h0Z"/>
      <path class="st3" d="M528.38,211.81v-21.83h3.02v21.83h-3.02Z"/>
      <path class="st3" d="M546.91,212h-2.63l-7.87-22.02h3.37l5.14,14.8c.48,1.41.83,3.63.83,3.63,0,0,.32-2.21.83-3.63l5.1-14.8h3.05l-7.83,22.02h.01Z"/>
      <path class="st3" d="M559.53,211.81v-21.83h12.78v2.6h-9.76v6.71h8.06v2.63h-8.06v7.29h10.18v2.6h-13.2Z"/>
      <path class="st7" d="M600.4,211.81l-.74-14.8c-.03-.45.03-2.86.03-2.86,0,0-.55,1.96-.93,2.83l-6.87,14.8h-1.8l-6.9-14.7c-.45-.93-.96-3.05-.96-3.05,0,0,.1,2.67.03,3.15l-.77,14.64h-2.99l1.64-21.83h2.95l7.03,14.74c.58,1.22,1.06,3.15,1.06,3.15,0,0,.48-1.89,1.06-3.11l6.9-14.77h2.95l1.38,21.83h-3.08v-.02Z"/>
      <path class="st7" d="M619.54,212.19c-5.94,0-10.34-4.37-10.34-11.14s4.72-11.46,11.2-11.46c5.94,0,10.31,4.37,10.31,11.14s-4.69,11.46-11.17,11.46ZM619.79,192.19c-4.27,0-7.45,3.44-7.45,8.28,0,5.91,3.47,9.12,7.8,9.12s7.42-3.44,7.42-8.28c0-5.91-3.44-9.12-7.77-9.12h0Z"/>
      <path class="st7" d="M649.72,211.81c-4.17-7.87-4.88-9.05-5.94-9.38h-3.69v9.38h-3.02v-21.83c2.09-.06,4.4-.16,6.68-.16,4.17,0,6.77,2.31,6.77,5.71s-2.41,5.23-3.82,5.84c1.28.67,1.99,1.73,6.61,10.43h-3.6.01ZM642.43,192.29h-2.34v7.71h4.75c1.41-.61,2.57-2.18,2.57-3.88,0-2.44-1.73-3.82-4.98-3.82h0Z"/>
      <path class="st7" d="M658.2,211.81v-21.83h12.78v2.6h-9.76v6.71h8.06v2.63h-8.06v7.29h10.18v2.6h-13.2Z"/>
    </g>
    <g>
      <path class="st3" d="M538.16,228.68h-.99v4.06h-1.46v-10.54c1.07-.05,2.15-.08,2.95-.08,2.26,0,3.71,1.13,3.71,2.96,0,2.33-1.86,3.6-4.2,3.6h-.01ZM538.42,223.33h-1.26v4.17h1.13c1.38,0,2.56-.78,2.56-2.2,0-1.13-.87-1.97-2.43-1.97Z"/>
      <path class="st3" d="M546.46,232.74v-10.54h1.46v9.22h4.42v1.32h-5.88Z"/>
      <path class="st3" d="M562.56,232.74l-1.21-3.27h-3.88l-1.15,3.27h-1.5l3.98-10.54h1.35l3.98,10.54h-1.58.01ZM559.64,224.88c-.14-.36-.26-1.18-.26-1.18,0,0-.12.81-.26,1.18l-1.24,3.4h3.05l-1.29-3.4Z"/>
      <path class="st3" d="M575.87,232.04c-.71.48-1.84.91-3.35.91-2.84,0-5.22-1.86-5.22-5.3s2.53-5.64,5.71-5.64c1.1,0,2.06.23,2.85.57l-.17,1.3c-.81-.33-1.86-.6-2.93-.6-2.2,0-3.95,1.74-3.95,4.2,0,2.65,1.77,4.17,4.01,4.17,1.21,0,2.37-.43,3.13-.98l-.08,1.36h0Z"/>
      <path class="st3" d="M579.95,232.74v-10.54h6.17v1.26h-4.71v3.24h3.89v1.27h-3.89v3.52h4.91v1.26h-6.37,0Z"/>
      <path class="st3" d="M592.38,232.92c-1.01,0-1.98-.22-2.77-.71l.26-1.33c.82.51,1.8.81,2.74.81,1.26,0,2.12-.74,2.12-1.67,0-1.02-.7-1.61-1.95-2.06-2.02-.73-2.87-1.57-2.87-3.04,0-1.72,1.61-2.9,3.57-2.9.92,0,1.88.26,2.53.57l-.2,1.27c-.62-.31-1.64-.62-2.51-.62-1.1,0-1.89.6-1.89,1.46,0,1.05.73,1.47,2.02,1.94,1.92.71,2.81,1.67,2.81,3.13,0,1.77-1.63,3.16-3.84,3.16h-.02Z"/>
    </g>
    <path class="st1" d="M569.1,99.82l7.03,9.1c.14.19.12.46-.06.61l-6.48,5.63c-.28.25-.73.05-.74-.32l-.55-14.73c-.02-.44.54-.63.8-.29h0ZM576.46,112.32l-7.36,6.46c-.14.13-.23.31-.23.5v23.48c0,.58.69.88,1.12.49l14.66-13.46c.2-.18.27-.47.17-.73-3.74-9.85-6.37-14.86-7.35-16.57-.21-.37-.7-.45-1.02-.17h.01ZM584.63,133.86l-15.53,13.87c-.14.12-.22.3-.22.49v20.76c0,.47.48.79.91.6,21.12-9.22,17.14-30.47,15.9-35.38-.12-.48-.7-.65-1.07-.33h.01ZM564.42,99.96c-2.34,2.91-8.13,10.37-11.4,17.04-.12.24-.05.53.15.7l11.33,9.43c.38.31.95.05.95-.44v-26.36c0-.55-.69-.79-1.03-.36h0ZM565.21,131.76l-12.59-10.73c-.33-.28-.85-.17-1.03.23-1.08,2.35-4.19,9.73-5.22,18.73-.02.21.06.43.22.57l17.76,15.61c.43.38,1.1.07,1.1-.5v-23.41c0-.19-.08-.38-.23-.5h0ZM565.31,160.74l-18.26-16.13c-.27-.24-.7-.03-.67.34.27,3.43,2.37,15.33,18.47,24.65.27.16.61-.04.61-.35v-8.21c0-.12-.05-.23-.14-.3h0Z"/>
    <g>
      <path class="st6" d="M148.51,474.98v19.26h-3.02v-19.26h-7.06v-2.57h17.11v2.57h-7.03Z"/>
      <path class="st6" d="M175.29,494.25v-9.98h-11.81v9.98h-3.02v-21.83h3.02v9.18h11.81v-9.18h2.99v21.83h-2.99Z"/>
      <path class="st6" d="M198.99,494.25c-4.17-7.87-4.88-9.05-5.94-9.38h-3.69v9.38h-3.02v-21.83c2.09-.06,4.4-.16,6.68-.16,4.17,0,6.77,2.31,6.77,5.71s-2.41,5.23-3.82,5.84c1.28.67,1.99,1.73,6.61,10.43h-3.6.01ZM191.7,474.73h-2.34v7.71h4.75c1.41-.61,2.57-2.18,2.57-3.88,0-2.44-1.73-3.82-4.98-3.82h0Z"/>
      <path class="st6" d="M207.47,494.25v-21.83h3.02v21.83h-3.02Z"/>
      <path class="st6" d="M225.99,494.44h-2.63l-7.87-22.02h3.37l5.14,14.8c.48,1.41.83,3.63.83,3.63,0,0,.32-2.21.83-3.63l5.1-14.8h3.05l-7.83,22.02h0Z"/>
      <path class="st6" d="M238.61,494.25v-21.83h12.78v2.6h-9.76v6.71h8.06v2.63h-8.06v7.29h10.18v2.6h-13.2Z"/>
      <path class="st6" d="M279.48,494.25l-.74-14.8c-.03-.45.03-2.86.03-2.86,0,0-.55,1.96-.93,2.83l-6.87,14.8h-1.8l-6.9-14.7c-.45-.93-.96-3.05-.96-3.05,0,0,.1,2.67.03,3.15l-.77,14.64h-2.99l1.64-21.83h2.95l7.03,14.74c.58,1.22,1.06,3.15,1.06,3.15,0,0,.48-1.89,1.06-3.11l6.9-14.77h2.95l1.38,21.83h-3.08v-.02Z"/>
      <path class="st6" d="M298.62,494.63c-5.94,0-10.34-4.37-10.34-11.14s4.72-11.46,11.2-11.46c5.94,0,10.31,4.37,10.31,11.14s-4.69,11.46-11.17,11.46ZM298.88,474.63c-4.27,0-7.45,3.44-7.45,8.28,0,5.91,3.47,9.12,7.8,9.12s7.42-3.44,7.42-8.28c0-5.91-3.44-9.12-7.77-9.12Z"/>
      <path class="st6" d="M328.81,494.25c-4.17-7.87-4.88-9.05-5.94-9.38h-3.69v9.38h-3.02v-21.83c2.09-.06,4.4-.16,6.68-.16,4.17,0,6.77,2.31,6.77,5.71s-2.41,5.23-3.82,5.84c1.28.67,1.99,1.73,6.61,10.43h-3.6.01ZM321.52,474.73h-2.34v7.71h4.75c1.41-.61,2.57-2.18,2.57-3.88,0-2.44-1.73-3.82-4.98-3.82h0Z"/>
      <path class="st6" d="M337.28,494.25v-21.83h12.78v2.6h-9.76v6.71h8.06v2.63h-8.06v7.29h10.18v2.6h-13.2,0Z"/>
    </g>
    <g>
      <path class="st6" d="M217.24,511.11h-.99v4.06h-1.46v-10.54c1.07-.05,2.15-.08,2.95-.08,2.26,0,3.71,1.13,3.71,2.96,0,2.33-1.86,3.6-4.2,3.6h0ZM217.5,505.76h-1.26v4.17h1.13c1.38,0,2.56-.78,2.56-2.2,0-1.13-.87-1.97-2.43-1.97h0Z"/>
      <path class="st6" d="M225.55,515.17v-10.54h1.46v9.22h4.42v1.32h-5.88Z"/>
      <path class="st6" d="M241.64,515.17l-1.21-3.27h-3.88l-1.15,3.27h-1.5l3.98-10.54h1.35l3.98,10.54h-1.58.01ZM238.73,507.31c-.14-.36-.26-1.18-.26-1.18,0,0-.12.81-.26,1.18l-1.24,3.4h3.05l-1.29-3.4h0Z"/>
      <path class="st6" d="M254.96,514.48c-.71.48-1.84.91-3.35.91-2.84,0-5.22-1.86-5.22-5.3s2.53-5.64,5.71-5.64c1.1,0,2.06.23,2.85.57l-.17,1.3c-.81-.33-1.86-.6-2.93-.6-2.2,0-3.95,1.74-3.95,4.2,0,2.65,1.77,4.17,4.01,4.17,1.21,0,2.37-.43,3.13-.98l-.08,1.36h0Z"/>
      <path class="st6" d="M259.03,515.17v-10.54h6.17v1.26h-4.71v3.24h3.89v1.27h-3.89v3.52h4.91v1.26h-6.37Z"/>
      <path class="st6" d="M271.46,515.36c-1.01,0-1.98-.22-2.77-.71l.26-1.33c.82.51,1.8.81,2.74.81,1.26,0,2.12-.74,2.12-1.67,0-1.02-.7-1.61-1.95-2.06-2.02-.73-2.87-1.57-2.87-3.04,0-1.72,1.61-2.9,3.57-2.9.92,0,1.88.26,2.53.57l-.2,1.27c-.62-.31-1.64-.62-2.51-.62-1.1,0-1.89.6-1.89,1.46,0,1.05.73,1.47,2.02,1.94,1.92.71,2.81,1.67,2.81,3.13,0,1.77-1.63,3.16-3.84,3.16h-.02Z"/>
    </g>
    <path class="st6" d="M248.18,382.25l7.03,9.1c.14.19.12.46-.06.61l-6.48,5.63c-.28.25-.73.05-.74-.32l-.55-14.73c-.02-.44.54-.63.8-.29h0ZM255.55,394.75l-7.36,6.46c-.14.13-.23.31-.23.5v23.48c0,.58.69.88,1.12.49l14.66-13.46c.2-.18.27-.47.17-.73-3.74-9.85-6.37-14.86-7.35-16.57-.21-.37-.7-.45-1.02-.17h.01ZM263.71,416.3l-15.53,13.87c-.14.12-.22.3-.22.49v20.76c0,.47.48.79.91.6,21.12-9.22,17.14-30.47,15.9-35.38-.12-.48-.7-.65-1.07-.33h.01ZM243.5,382.4c-2.34,2.91-8.13,10.37-11.4,17.04-.12.24-.05.53.15.7l11.33,9.43c.38.31.95.05.95-.44v-26.36c0-.55-.69-.79-1.03-.36h0ZM244.3,414.2l-12.59-10.73c-.33-.28-.85-.17-1.03.23-1.08,2.35-4.19,9.73-5.22,18.73-.02.21.06.43.22.57l17.76,15.61c.43.38,1.1.07,1.1-.5v-23.41c0-.19-.08-.38-.23-.5h-.01ZM244.39,443.18l-18.26-16.13c-.27-.24-.7-.03-.67.34.27,3.43,2.37,15.33,18.47,24.65.27.16.61-.04.61-.35v-8.21c0-.12-.05-.23-.14-.3h-.01Z"/>
    <g>
      <path class="st3" d="M469.43,474.98v19.26h-3.02v-19.26h-7.06v-2.57h17.11v2.57h-7.03Z"/>
      <path class="st3" d="M496.2,494.25v-9.98h-11.81v9.98h-3.02v-21.83h3.02v9.18h11.81v-9.18h2.99v21.83h-2.99Z"/>
      <path class="st3" d="M519.9,494.25c-4.17-7.87-4.88-9.05-5.94-9.38h-3.69v9.38h-3.02v-21.83c2.09-.06,4.4-.16,6.68-.16,4.17,0,6.77,2.31,6.77,5.71s-2.41,5.23-3.82,5.84c1.28.67,1.99,1.73,6.61,10.43h-3.6,0ZM512.61,474.73h-2.34v7.71h4.75c1.41-.61,2.57-2.18,2.57-3.88,0-2.44-1.73-3.82-4.98-3.82h0Z"/>
      <path class="st3" d="M528.38,494.25v-21.83h3.02v21.83h-3.02Z"/>
      <path class="st3" d="M546.91,494.44h-2.63l-7.87-22.02h3.37l5.14,14.8c.48,1.41.83,3.63.83,3.63,0,0,.32-2.21.83-3.63l5.1-14.8h3.05l-7.83,22.02h.01Z"/>
      <path class="st3" d="M559.53,494.25v-21.83h12.78v2.6h-9.76v6.71h8.06v2.63h-8.06v7.29h10.18v2.6h-13.2Z"/>
      <path class="st3" d="M600.4,494.25l-.74-14.8c-.03-.45.03-2.86.03-2.86,0,0-.55,1.96-.93,2.83l-6.87,14.8h-1.8l-6.9-14.7c-.45-.93-.96-3.05-.96-3.05,0,0,.1,2.67.03,3.15l-.77,14.64h-2.99l1.64-21.83h2.95l7.03,14.74c.58,1.22,1.06,3.15,1.06,3.15,0,0,.48-1.89,1.06-3.11l6.9-14.77h2.95l1.38,21.83h-3.08v-.02Z"/>
      <path class="st3" d="M619.54,494.63c-5.94,0-10.34-4.37-10.34-11.14s4.72-11.46,11.2-11.46c5.94,0,10.31,4.37,10.31,11.14s-4.69,11.46-11.17,11.46ZM619.79,474.63c-4.27,0-7.45,3.44-7.45,8.28,0,5.91,3.47,9.12,7.8,9.12s7.42-3.44,7.42-8.28c0-5.91-3.44-9.12-7.77-9.12h0Z"/>
      <path class="st3" d="M649.72,494.25c-4.17-7.87-4.88-9.05-5.94-9.38h-3.69v9.38h-3.02v-21.83c2.09-.06,4.4-.16,6.68-.16,4.17,0,6.77,2.31,6.77,5.71s-2.41,5.23-3.82,5.84c1.28.67,1.99,1.73,6.61,10.43h-3.6.01ZM642.43,474.73h-2.34v7.71h4.75c1.41-.61,2.57-2.18,2.57-3.88,0-2.44-1.73-3.82-4.98-3.82h0Z"/>
      <path class="st3" d="M658.2,494.25v-21.83h12.78v2.6h-9.76v6.71h8.06v2.63h-8.06v7.29h10.18v2.6h-13.2Z"/>
    </g>
    <g>
      <path class="st3" d="M538.16,511.11h-.99v4.06h-1.46v-10.54c1.07-.05,2.15-.08,2.95-.08,2.26,0,3.71,1.13,3.71,2.96,0,2.33-1.86,3.6-4.2,3.6h-.01ZM538.42,505.76h-1.26v4.17h1.13c1.38,0,2.56-.78,2.56-2.2,0-1.13-.87-1.97-2.43-1.97Z"/>
      <path class="st3" d="M546.46,515.17v-10.54h1.46v9.22h4.42v1.32h-5.88Z"/>
      <path class="st3" d="M562.56,515.17l-1.21-3.27h-3.88l-1.15,3.27h-1.5l3.98-10.54h1.35l3.98,10.54h-1.58.01ZM559.64,507.31c-.14-.36-.26-1.18-.26-1.18,0,0-.12.81-.26,1.18l-1.24,3.4h3.05l-1.29-3.4Z"/>
      <path class="st3" d="M575.87,514.48c-.71.48-1.84.91-3.35.91-2.84,0-5.22-1.86-5.22-5.3s2.53-5.64,5.71-5.64c1.1,0,2.06.23,2.85.57l-.17,1.3c-.81-.33-1.86-.6-2.93-.6-2.2,0-3.95,1.74-3.95,4.2,0,2.65,1.77,4.17,4.01,4.17,1.21,0,2.37-.43,3.13-.98l-.08,1.36h0Z"/>
      <path class="st3" d="M579.95,515.17v-10.54h6.17v1.26h-4.71v3.24h3.89v1.27h-3.89v3.52h4.91v1.26h-6.37,0Z"/>
      <path class="st3" d="M592.38,515.36c-1.01,0-1.98-.22-2.77-.71l.26-1.33c.82.51,1.8.81,2.74.81,1.26,0,2.12-.74,2.12-1.67,0-1.02-.7-1.61-1.95-2.06-2.02-.73-2.87-1.57-2.87-3.04,0-1.72,1.61-2.9,3.57-2.9.92,0,1.88.26,2.53.57l-.2,1.27c-.62-.31-1.64-.62-2.51-.62-1.1,0-1.89.6-1.89,1.46,0,1.05.73,1.47,2.02,1.94,1.92.71,2.81,1.67,2.81,3.13,0,1.77-1.63,3.16-3.84,3.16h-.02Z"/>
    </g>
    <path class="st3" d="M569.1,382.25l7.03,9.1c.14.19.12.46-.06.61l-6.48,5.63c-.28.25-.73.05-.74-.32l-.55-14.73c-.02-.44.54-.63.8-.29h0ZM576.46,394.75l-7.36,6.46c-.14.13-.23.31-.23.5v23.48c0,.58.69.88,1.12.49l14.66-13.46c.2-.18.27-.47.17-.73-3.74-9.85-6.37-14.86-7.35-16.57-.21-.37-.7-.45-1.02-.17h.01ZM584.63,416.3l-15.53,13.87c-.14.12-.22.3-.22.49v20.76c0,.47.48.79.91.6,21.12-9.22,17.14-30.47,15.9-35.38-.12-.48-.7-.65-1.07-.33h.01ZM564.42,382.4c-2.34,2.91-8.13,10.37-11.4,17.04-.12.24-.05.53.15.7l11.33,9.43c.38.31.95.05.95-.44v-26.36c0-.55-.69-.79-1.03-.36h0ZM565.21,414.2l-12.59-10.73c-.33-.28-.85-.17-1.03.23-1.08,2.35-4.19,9.73-5.22,18.73-.02.21.06.43.22.57l17.76,15.61c.43.38,1.1.07,1.1-.5v-23.41c0-.19-.08-.38-.23-.5h0ZM565.31,443.18l-18.26-16.13c-.27-.24-.7-.03-.67.34.27,3.43,2.37,15.33,18.47,24.65.27.16.61-.04.61-.35v-8.21c0-.12-.05-.23-.14-.3h0Z"/>
  </g>
</svg>