<?xml version="1.0" encoding="UTF-8"?>
<svg id="Layer_1" xmlns="http://www.w3.org/2000/svg" xmlns:xlink="http://www.w3.org/1999/xlink" version="1.1" viewBox="150 200 700 350">
  <!-- Generator: Adobe Illustrator 29.8.1, SVG Export Plug-In . SVG Version: 2.1.1 Build 2)  -->
  <defs>
    <style>
      .st0 {
        fill: url(#linear-gradient);
      }

      .st1 {
        fill: #8dc63f;
      }

      .st2 {
        fill: #1c75bc;
      }
    </style>
    <linearGradient id="linear-gradient" x1="522.1" y1="538.69" x2="522.1" y2="373.47" gradientTransform="translate(0 770) scale(1 -1)" gradientUnits="userSpaceOnUse">
      <stop offset="0" stop-color="#8dc63f"/>
      <stop offset=".08" stop-color="#83c345"/>
      <stop offset=".15" stop-color="#6abb4e"/>
      <stop offset=".23" stop-color="#43b05a"/>
      <stop offset=".31" stop-color="#0ea669"/>
      <stop offset=".38" stop-color="#009e74"/>
      <stop offset=".42" stop-color="#009a77"/>
      <stop offset="1" stop-color="#009a77"/>
    </linearGradient>
  </defs>
  <g>
    <path class="st2" d="M292.79,450.56v45.45h-7.13v-45.45h-16.66v-6.07h40.38v6.07h-16.59Z"/>
    <path class="st2" d="M355.99,496.01v-23.55h-27.87v23.55h-7.13v-51.52h7.13v21.66h27.87v-21.66h7.06v51.52h-7.06Z"/>
    <path class="st2" d="M411.92,496.01c-9.84-18.57-11.52-21.36-14.02-22.14h-8.71v22.14h-7.13v-51.52c4.93-.14,10.38-.38,15.76-.38,9.84,0,15.98,5.45,15.98,13.48s-5.69,12.34-9.02,13.78c3.02,1.58,4.7,4.08,15.6,24.61h-8.5l.02.02ZM394.72,449.94h-5.52v18.2h11.21c3.33-1.44,6.07-5.14,6.07-9.16,0-5.76-4.08-9.02-11.75-9.02v-.02Z"/>
    <path class="st2" d="M431.94,496.01v-51.52h7.13v51.52h-7.13Z"/>
    <path class="st2" d="M470.98,496.01l-23.55-51.52h8.5l18.98,42.2,18.98-42.2h8.02l-23.48,51.52h-7.43v-.02Z"/>
    <path class="st2" d="M555.37,497.09c-16.17,0-28.51-12.27-28.51-26.36s12.34-26.43,28.51-26.43,28.51,12.34,28.51,26.43-12.34,26.36-28.51,26.36ZM555.37,450.49c-11.59,0-21.44,8.78-21.44,20.3s9.84,20.23,21.44,20.23,21.44-8.71,21.44-20.23-9.84-20.3-21.44-20.3Z"/>
    <path class="st2" d="M637.08,496.01v-22.91h-27.94v22.91h-7.13v-51.52h7.13v22.28h27.94v-22.28h7.06v51.52h-7.06Z"/>
    <path class="st2" d="M703.1,496.01l-26.5-42.87v42.87h-7.13v-51.52h7.2l26.5,42.8v-42.8h7.13v51.52h-7.2Z"/>
    <path class="st2" d="M748.88,497.09c-14.47,0-25.66-11.52-25.66-26.36s11.21-26.43,25.66-26.43c8.71,0,15.98,4.85,20.44,11.75l-5.83,3.47c-3.78-6.07-8.64-8.92-14.61-8.92-10.77,0-18.59,8.78-18.59,20.16s7.81,20.16,18.59,20.16c5.97,0,10.83-2.85,14.61-8.92l5.83,3.47c-4.47,6.9-11.73,11.61-20.44,11.61Z"/>
    <path class="st1" d="M334.71,336.77v76.65h-12.02v-76.65h-28.1v-10.24h68.08v10.24h-27.96Z"/>
    <path class="st1" d="M456.66,413.41v-39.69h-47.01v39.69h-12.02v-86.89h12.02v36.53h47.01v-36.53h11.9v86.89h-11.9Z"/>
    <path class="st1" d="M568.53,413.41c-16.59-31.3-19.42-36.04-23.65-37.31h-14.69v37.31h-12.02v-86.89c8.31-.24,17.51-.64,26.58-.64,16.59,0,26.96,9.19,26.96,22.74s-9.59,20.82-15.21,23.25c5.09,2.67,7.93,6.88,26.32,41.51h-14.34l.04.03ZM535.28,336.73h-9.31v30.7h18.91c5.61-2.43,10.24-8.67,10.24-15.45,0-9.71-6.88-15.21-19.82-15.21l-.02-.04Z"/>
    <path class="st1" d="M596.32,413.41v-86.89h12.02v86.89h-12.02Z"/>
    <path class="st1" d="M661.74,413.41l-39.69-72.29v72.29h-12.02v-86.89h12.14l44.67,72.17v-72.17h12.02v86.89h-17.12Z"/>
    <path class="st1" d="M757.31,415.04c-24.4,0-43.28-19.42-43.28-44.46s18.91-44.58,43.28-44.58c14.69,0,26.96,8.18,34.48,19.82l-9.83,5.85c-6.37-10.24-14.57-15.05-24.65-15.05-18.18,0-31.34,14.81-31.34,34.01s13.17,34.01,31.34,34.01c10.08,0,18.28-4.81,24.65-15.05l9.83,5.85c-7.53,11.64-19.79,19.59-34.48,19.59Z"/>
    <path class="st0" d="M486.43,396.52c0-9.02,7.32-16.34,16.34-16.34s16.34,7.32,16.34,16.34-7.32,16.34-16.34,16.34-16.34-7.32-16.34-16.34Z"/>
    <path class="st0" d="M546.66,396.52c0-9.02,7.32-16.34,16.34-16.34s16.34,7.32,16.34,16.34-7.32,16.34-16.34,16.34-16.34-7.32-16.34-16.34Z"/>
    <path class="st0" d="M486.43,336.17c0-9.02,7.32-16.34,16.34-16.34s16.34,7.32,16.34,16.34-7.32,16.34-16.34,16.34-16.34-7.32-16.34-16.34Z"/>
    <path class="st0" d="M546.66,336.17c0-9.02,7.32-16.34,16.34-16.34s16.34,7.32,16.34,16.34-7.32,16.34-16.34,16.34-16.34-7.32-16.34-16.34Z"/>
    <path class="st0" d="M516.55,366.35c0-9.02,7.32-16.34,16.34-16.34s16.34,7.32,16.34,16.34-7.32,16.34-16.34,16.34-16.34-7.32-16.34-16.34Z"/>
  </g>
</svg>