<?xml version="1.0" encoding="UTF-8"?>
<svg id="Layer_1" xmlns="http://www.w3.org/2000/svg" xmlns:xlink="http://www.w3.org/1999/xlink" version="1.1" viewBox="0 0 1024 768">
  <!-- Generator: Adobe Illustrator 29.8.1, SVG Export Plug-In . SVG Version: 2.1.1 Build 2)  -->
  <defs>
    <style>
      .st0 {
        fill: url(#linear-gradient);
      }

      .st1 {
        fill: #8dc63f;
      }

      .st2 {
        fill: #1c75bc;
      }
    </style>
    <linearGradient id="linear-gradient" x1="522.1" y1="538.69" x2="522.1" y2="373.47" gradientTransform="translate(0 770) scale(1 -1)" gradientUnits="userSpaceOnUse">
      <stop offset="0" stop-color="#8dc63f"/>
      <stop offset=".08" stop-color="#83c345"/>
      <stop offset=".2" stop-color="#69be56"/>
      <stop offset=".36" stop-color="#3fb572"/>
      <stop offset=".55" stop-color="#06a898"/>
      <stop offset=".57" stop-color="#00a79d"/>
      <stop offset="1" stop-color="#1c75bc"/>
    </linearGradient>
  </defs>
  <g>
    <path class="st2" d="M292.79,450.56v45.45h-7.13v-45.45h-16.66v-6.07h40.38v6.07h-16.59Z"/>
    <path class="st2" d="M355.99,496.01v-23.55h-27.87v23.55h-7.13v-51.52h7.13v21.66h27.87v-21.66h7.06v51.52h-7.06Z"/>
    <path class="st2" d="M411.92,496.01c-9.84-18.57-11.52-21.36-14.02-22.14h-8.71v22.14h-7.13v-51.52c4.93-.14,10.38-.38,15.76-.38,9.84,0,15.98,5.45,15.98,13.48s-5.69,12.34-9.02,13.78c3.02,1.58,4.7,4.08,15.6,24.61h-8.5l.02.02ZM394.72,449.94h-5.52v18.2h11.21c3.33-1.44,6.07-5.14,6.07-9.16,0-5.76-4.08-9.02-11.75-9.02v-.02Z"/>
    <path class="st2" d="M431.94,496.01v-51.52h7.13v51.52h-7.13Z"/>
    <path class="st2" d="M475.64,496.46h-6.21l-18.57-51.97h7.95l12.13,34.93c1.13,3.33,1.96,8.57,1.96,8.57,0,0,.76-5.22,1.96-8.57l12.04-34.93h7.2l-18.48,51.97h.02Z"/>
    <path class="st2" d="M505.43,496.01v-51.52h30.16v6.14h-23.03v15.84h19.02v6.21h-19.02v17.2h24.02v6.14h-31.15Z"/>
    <path class="st1" d="M601.88,496.01l-1.75-34.93c-.07-1.06.07-6.75.07-6.75,0,0-1.3,4.63-2.19,6.68l-16.21,34.93h-4.25l-16.28-34.69c-1.06-2.19-2.27-7.2-2.27-7.2,0,0,.24,6.3.07,7.43l-1.82,34.55h-7.06l3.87-51.52h6.96l16.59,34.79c1.37,2.88,2.5,7.43,2.5,7.43,0,0,1.13-4.46,2.5-7.34l16.28-34.86h6.96l3.26,51.52h-7.27l.02-.05Z"/>
    <path class="st1" d="M647.05,496.91c-14.02,0-24.4-10.31-24.4-26.29s11.14-27.05,26.43-27.05c14.02,0,24.33,10.31,24.33,26.29s-11.07,27.05-26.36,27.05ZM647.66,449.71c-10.08,0-17.58,8.12-17.58,19.54,0,13.95,8.19,21.52,18.41,21.52s17.51-8.12,17.51-19.54c0-13.95-8.12-21.52-18.34-21.52Z"/>
    <path class="st1" d="M718.29,496.01c-9.84-18.57-11.52-21.36-14.02-22.14h-8.71v22.14h-7.13v-51.52c4.93-.14,10.38-.38,15.76-.38,9.84,0,15.98,5.45,15.98,13.48s-5.69,12.34-9.02,13.78c3.02,1.58,4.7,4.08,15.6,24.61h-8.5l.02.02ZM701.09,449.94h-5.52v18.2h11.21c3.33-1.44,6.07-5.14,6.07-9.16,0-5.76-4.08-9.02-11.75-9.02v-.02Z"/>
    <path class="st1" d="M738.28,496.01v-51.52h30.16v6.14h-23.03v15.84h19.02v6.21h-19.02v17.2h24.02v6.14h-31.15,0Z"/>
  </g>
  <g>
    <path class="st2" d="M435.57,545.4l-2.86-7.72h-9.16l-2.71,7.72h-3.54l9.39-24.87h3.19l9.39,24.87h-3.73.02ZM428.7,526.85c-.33-.85-.61-2.78-.61-2.78,0,0-.28,1.91-.61,2.78l-2.93,8.02h7.2l-3.04-8.02h0Z"/>
    <path class="st2" d="M455.98,545.5c-2.27,0-5.12-.05-7.32-.12v-24.87c2.45-.07,5.73-.21,8.24-.21,7.69,0,13.55,4.34,13.55,11.78,0,8.78-6.04,13.43-14.44,13.43h-.02ZM455.91,523.15h-3.8v19.42h4.51c5.85,0,10.29-3.33,10.29-9.77s-4.32-9.65-10.97-9.65h-.02Z"/>
    <path class="st2" d="M489.45,545.61h-3l-8.97-25.09h3.85l5.85,16.87c.54,1.6.94,4.13.94,4.13,0,0,.38-2.53.94-4.13l5.81-16.87h3.47l-8.92,25.09h.02Z"/>
    <path class="st2" d="M507.12,545.4v-24.87h3.45v24.87h-3.45Z"/>
    <path class="st2" d="M527.47,545.83c-2.38,0-4.67-.52-6.54-1.68l.61-3.14c1.94,1.2,4.25,1.91,6.47,1.91,2.97,0,5-1.75,5-3.94,0-2.41-1.65-3.8-4.6-4.86-4.77-1.72-6.77-3.71-6.77-7.17,0-4.06,3.8-6.84,8.43-6.84,2.17,0,4.44.61,5.97,1.35l-.47,3c-1.46-.73-3.87-1.46-5.92-1.46-2.6,0-4.46,1.42-4.46,3.45,0,2.48,1.72,3.47,4.77,4.58,4.53,1.68,6.63,3.94,6.63,7.39,0,4.18-3.85,7.46-9.06,7.46l-.05-.02Z"/>
    <path class="st2" d="M556.66,545.83c-6.77,0-11.78-4.98-11.78-12.7s5.38-13.07,12.77-13.07c6.77,0,11.75,4.98,11.75,12.7s-5.33,13.05-12.72,13.05l-.02.02ZM556.94,523.03c-4.86,0-8.5,3.92-8.5,9.44,0,6.73,3.94,10.38,8.9,10.38s8.45-3.92,8.45-9.44c0-6.73-3.92-10.38-8.85-10.38h0Z"/>
    <path class="st2" d="M594.32,545.4c-4.74-8.97-5.57-10.31-6.77-10.69h-4.2v10.69h-3.45v-24.87c2.38-.07,5-.19,7.6-.19,4.77,0,7.72,2.64,7.72,6.51s-2.74,5.97-4.34,6.66c1.46.78,2.27,1.98,7.53,11.89h-4.11.02ZM586.04,523.15h-2.67v8.78h5.4c1.6-.68,2.93-2.48,2.93-4.44,0-2.78-1.98-4.34-5.66-4.34Z"/>
    <path class="st2" d="M611.74,545.83c-2.38,0-4.67-.52-6.54-1.68l.61-3.14c1.94,1.2,4.25,1.91,6.47,1.91,2.97,0,5-1.75,5-3.94,0-2.41-1.65-3.8-4.6-4.86-4.77-1.72-6.77-3.71-6.77-7.17,0-4.06,3.8-6.84,8.43-6.84,2.17,0,4.44.61,5.97,1.35l-.47,3c-1.46-.73-3.87-1.46-5.92-1.46-2.6,0-4.46,1.42-4.46,3.45,0,2.48,1.72,3.47,4.77,4.58,4.53,1.68,6.63,3.94,6.63,7.39,0,4.18-3.85,7.46-9.06,7.46l-.05-.02Z"/>
  </g>
  <path class="st0" d="M528.01,231.72l16.59,21.48c.33.45.28,1.09-.14,1.44l-15.29,13.29c-.66.59-1.72.12-1.75-.76l-1.3-34.76c-.05-1.04,1.27-1.49,1.89-.68ZM545.4,261.22l-17.37,15.25c-.33.31-.54.73-.54,1.18v55.41c0,1.37,1.63,2.08,2.64,1.16l34.6-31.76c.47-.42.64-1.11.4-1.72-8.83-23.25-15.03-35.07-17.35-39.1-.5-.87-1.65-1.06-2.41-.4h.02ZM564.66,312.05l-36.65,32.73c-.33.28-.52.71-.52,1.16v48.99c0,1.11,1.13,1.86,2.15,1.42,49.84-21.76,40.45-71.91,37.52-83.5-.28-1.13-1.65-1.53-2.53-.78l.02-.02ZM516.97,232.05c-5.52,6.87-19.19,24.47-26.9,40.21-.28.57-.12,1.25.35,1.65l26.74,22.25c.9.73,2.24.12,2.24-1.04v-62.21c0-1.3-1.63-1.86-2.43-.85v-.02ZM518.85,307.09l-29.71-25.32c-.78-.66-2.01-.4-2.43.54-2.55,5.55-9.89,22.96-12.32,44.2-.05.5.14,1.01.52,1.35l41.91,36.84c1.01.9,2.6.17,2.6-1.18v-55.25c0-.45-.19-.9-.54-1.18h-.02ZM519.07,375.49l-43.09-38.07c-.64-.57-1.65-.07-1.58.8.64,8.09,5.59,36.18,43.59,58.17.64.38,1.44-.09,1.44-.83v-19.38c0-.28-.12-.54-.33-.71h-.02Z"/>
</svg>